<?xml version="1.0" encoding="utf-8" standalone="no"?>
<!DOCTYPE svg PUBLIC "-//W3C//DTD SVG 1.1//EN"
  "http://www.w3.org/Graphics/SVG/1.1/DTD/svg11.dtd">
<svg xmlns:xlink="http://www.w3.org/1999/xlink" width="237.6pt" height="216.342857pt" viewBox="0 0 237.6 216.342857" xmlns="http://www.w3.org/2000/svg" version="1.1">
 <metadata>
  <rdf:RDF xmlns:dc="http://purl.org/dc/elements/1.1/" xmlns:cc="http://creativecommons.org/ns#" xmlns:rdf="http://www.w3.org/1999/02/22-rdf-syntax-ns#">
   <cc:Work>
    <dc:type rdf:resource="http://purl.org/dc/dcmitype/StillImage"/>
    <dc:date>2025-08-25T15:22:42.681851</dc:date>
    <dc:format>image/svg+xml</dc:format>
    <dc:creator>
     <cc:Agent>
      <dc:title>Matplotlib v3.10.5, https://matplotlib.org/</dc:title>
     </cc:Agent>
    </dc:creator>
   </cc:Work>
  </rdf:RDF>
 </metadata>
 <defs>
  <style type="text/css">*{stroke-linejoin: round; stroke-linecap: butt}</style>
 </defs>
 <g id="figure_1">
  <g id="patch_1">
   <path d="M 0 216.342857 
L 237.6 216.342857 
L 237.6 0 
L 0 0 
z
" style="fill: #ffffff"/>
  </g>
  <g id="axes_1">
   <g id="patch_2">
    <path d="M 33.771429 150.685714 
L 140.057143 150.685714 
L 140.057143 44.4 
L 33.771429 44.4 
L 33.771429 150.685714 
z
" clip-path="url(#p8182541c32)" style="fill: none; stroke-dasharray: 4.44,1.92; stroke-dashoffset: 0; stroke: #a9a9a9; stroke-width: 1.2; stroke-linejoin: miter"/>
   </g>
   <g id="patch_3">
    <path d="M 33.771429 150.685714 
L 140.057143 182.571429 
L 203.828571 65.657143 
L 97.542857 33.771429 
z
" clip-path="url(#p8182541c32)" style="fill: #1f77b4; opacity: 0.2"/>
   </g>
   <g id="patch_4">
    <path d="M 140.057143 150.685714 
L 135.274286 152.28 
L 135.274286 150.738857 
L 33.771429 150.738857 
L 33.771429 150.632571 
L 135.274286 150.632571 
L 135.274286 149.091429 
z
" clip-path="url(#p8182541c32)" style="fill: #1f77b4; opacity: 0.8; stroke: #000000; stroke-width: 1.2; stroke-linejoin: miter"/>
   </g>
   <g id="patch_5">
    <path d="M 33.771429 44.4 
L 35.365714 49.182857 
L 33.824571 49.182857 
L 33.824571 150.685714 
L 33.718286 150.685714 
L 33.718286 49.182857 
L 32.177143 49.182857 
z
" clip-path="url(#p8182541c32)" style="fill: #1f77b4; opacity: 0.8; stroke: #000000; stroke-width: 1.2; stroke-linejoin: miter"/>
   </g>
   <g id="patch_6">
    <path d="M 140.057143 182.571429 
L 133.338128 182.775035 
L 133.933677 180.789872 
L 33.756158 150.736616 
L 33.786699 150.634813 
L 133.964218 180.688068 
L 134.559767 178.702905 
z
" clip-path="url(#p8182541c32)" style="fill: #1f77b4; opacity: 0.9; stroke: #000000; stroke-width: 2; stroke-linejoin: miter"/>
   </g>
   <g id="patch_7">
    <path d="M 97.542857 33.771429 
L 96.355304 40.387797 
L 94.535803 39.395342 
L 33.818082 150.711162 
L 33.724775 150.660267 
L 94.442495 39.344446 
L 92.622994 38.351991 
z
" clip-path="url(#p8182541c32)" style="fill: #1f77b4; opacity: 0.9; stroke: #000000; stroke-width: 2; stroke-linejoin: miter"/>
   </g>
   <g id="line2d_1">
    <path d="M 12.514286 150.685714 
L 203.828571 150.685714 
" clip-path="url(#p8182541c32)" style="fill: none; stroke: #1f77b4; stroke-opacity: 0.4; stroke-width: 0.8; stroke-linecap: square"/>
   </g>
   <g id="line2d_2">
    <path d="M 33.771429 214.457143 
L 33.771429 -1 
" clip-path="url(#p8182541c32)" style="fill: none; stroke: #ff7f0e; stroke-opacity: 0.4; stroke-width: 0.8; stroke-linecap: square"/>
   </g>
  </g>
 </g>
 <defs>
  <clipPath id="p8182541c32">
   <rect x="7.2" y="7.2" width="223.2" height="201.942857"/>
  </clipPath>
 </defs>
</svg>
